<?xml version="1.0" encoding="utf-8"?>
<svg viewBox="28.5603 0 198.8787 238.826" width="198.8787" height="238.826" xmlns="http://www.w3.org/2000/svg">
  <path d="M 92.54 238.81 C 78.22 232.62 64.82 216.888 64.788 200.791 C 64.749 183.241 75.871 168.341 89.704 158.549 C 88.041 164.832 87.134 170.579 91.254 176.199 C 95.084 181.424 101.792 183.963 108.126 182.585 C 122.926 179.345 123.605 163.075 114.831 153.596 C 106.156 144.209 97.764 133.606 101.066 119.993 C 102.719 113.169 106.909 106.777 112.217 102.208 C 108.137 112.93 119.731 123.504 127.37 128.771 C 140.621 137.909 155.16 144.815 167.344 155.527 C 180.16 166.785 189.624 182.007 187.713 199.662 C 185.642 218.798 170.436 232.107 153.38 238.826 C 189.422 230.871 226.663 202.898 227.426 162.926 C 228.058 130.041 205.499 104.733 177.554 90.244 L 176.094 89.447 C 176.861 91.308 177.112 92.891 177.083 94.308 C 177.333 93.263 177.503 92.189 177.551 91.081 C 177.544 92.397 177.372 93.708 177.039 94.981 L 177.083 94.308 C 176.668 96.054 175.969 97.72 175.014 99.239 L 175.424 98.798 C 169.849 108.045 154.756 110.053 147.3 100.478 C 135.314 85.076 147.551 68.47 149.263 52.16 C 151.406 31.719 138.587 11.875 122.693 0 C 131.447 14.161 119.914 32.896 110.687 43.37 C 101.74 53.523 90.859 62 80.982 71.225 C 70.372 81.133 60.172 91.57 51.451 103.199 C 34.009 126.475 23.331 155.749 31.178 184.787 C 39.02 213.805 64.156 232.277 92.541 238.809 L 92.54 238.81 Z" fill="#EE4323"/>
</svg>
